<mxfile host="app.diagrams.net" modified="2021-11-23T01:58:22.039Z" agent="5.0 (Windows NT 10.0; Win64; x64) AppleWebKit/537.36 (KHTML, like Gecko) Chrome/96.0.4664.45 Safari/537.36" etag="_JRD0cCGMTLUB4tSrf72" version="15.5.4" type="github">
  <diagram id="D50CpqLyhducLuIxnLlI" name="Page-1">
    <mxGraphModel dx="1422" dy="762" grid="1" gridSize="10" guides="1" tooltips="1" connect="1" arrows="1" fold="1" page="1" pageScale="1" pageWidth="850" pageHeight="1100" math="0" shadow="0">
      <root>
        <mxCell id="0" />
        <mxCell id="1" parent="0" />
        <mxCell id="noAZoOvtoCz1vI1rL1xf-1" value="U" style="rounded=0;whiteSpace=wrap;html=1;" parent="1" vertex="1">
          <mxGeometry x="240" y="80" width="120" height="60" as="geometry" />
        </mxCell>
        <mxCell id="noAZoOvtoCz1vI1rL1xf-2" value="UEngine" style="whiteSpace=wrap;html=1;" parent="1" vertex="1">
          <mxGeometry x="210" y="260" width="120" height="60" as="geometry" />
        </mxCell>
        <mxCell id="noAZoOvtoCz1vI1rL1xf-3" value="Extends" style="endArrow=block;endSize=16;endFill=0;html=1;rounded=0;" parent="1" target="noAZoOvtoCz1vI1rL1xf-2" edge="1">
          <mxGeometry width="160" relative="1" as="geometry">
            <mxPoint x="190" y="380" as="sourcePoint" />
            <mxPoint x="250" y="350" as="targetPoint" />
          </mxGeometry>
        </mxCell>
        <mxCell id="noAZoOvtoCz1vI1rL1xf-4" value="UEditorEngine" style="html=1;" parent="1" vertex="1">
          <mxGeometry x="140" y="380" width="110" height="50" as="geometry" />
        </mxCell>
        <mxCell id="noAZoOvtoCz1vI1rL1xf-5" value="&lt;span&gt;UGameEngine&lt;/span&gt;" style="html=1;" parent="1" vertex="1">
          <mxGeometry x="300" y="380" width="110" height="50" as="geometry" />
        </mxCell>
        <mxCell id="noAZoOvtoCz1vI1rL1xf-6" value="Extends" style="endArrow=block;endSize=16;endFill=0;html=1;rounded=0;exitX=0.382;exitY=-0.08;exitDx=0;exitDy=0;exitPerimeter=0;entryX=0.592;entryY=0.983;entryDx=0;entryDy=0;entryPerimeter=0;" parent="1" source="noAZoOvtoCz1vI1rL1xf-5" target="noAZoOvtoCz1vI1rL1xf-2" edge="1">
          <mxGeometry width="160" relative="1" as="geometry">
            <mxPoint x="200" y="390" as="sourcePoint" />
            <mxPoint x="253.33333333333326" y="330" as="targetPoint" />
          </mxGeometry>
        </mxCell>
        <mxCell id="noAZoOvtoCz1vI1rL1xf-8" value="Extends" style="endArrow=block;endSize=16;endFill=0;html=1;rounded=0;entryX=0.25;entryY=1;entryDx=0;entryDy=0;" parent="1" target="noAZoOvtoCz1vI1rL1xf-4" edge="1">
          <mxGeometry width="160" relative="1" as="geometry">
            <mxPoint x="168" y="480" as="sourcePoint" />
            <mxPoint x="200" y="440" as="targetPoint" />
          </mxGeometry>
        </mxCell>
        <mxCell id="noAZoOvtoCz1vI1rL1xf-9" value="UUnrealEdEngine" style="text;whiteSpace=wrap;html=1;" parent="1" vertex="1">
          <mxGeometry x="130" y="490" width="120" height="30" as="geometry" />
        </mxCell>
        <mxCell id="noAZoOvtoCz1vI1rL1xf-12" value="UDisplayClusterEditorEngine" style="text;whiteSpace=wrap;html=1;" parent="1" vertex="1">
          <mxGeometry x="120" y="560" width="180" height="30" as="geometry" />
        </mxCell>
        <mxCell id="noAZoOvtoCz1vI1rL1xf-13" value="Extends" style="endArrow=block;endSize=16;endFill=0;html=1;rounded=0;entryX=0.25;entryY=1;entryDx=0;entryDy=0;" parent="1" edge="1">
          <mxGeometry width="160" relative="1" as="geometry">
            <mxPoint x="168" y="480" as="sourcePoint" />
            <mxPoint x="167.5" y="430" as="targetPoint" />
          </mxGeometry>
        </mxCell>
        <mxCell id="noAZoOvtoCz1vI1rL1xf-14" value="Extends" style="endArrow=block;endSize=16;endFill=0;html=1;rounded=0;entryX=0.25;entryY=1;entryDx=0;entryDy=0;" parent="1" edge="1">
          <mxGeometry width="160" relative="1" as="geometry">
            <mxPoint x="171" y="563" as="sourcePoint" />
            <mxPoint x="170.5" y="513" as="targetPoint" />
          </mxGeometry>
        </mxCell>
        <mxCell id="noAZoOvtoCz1vI1rL1xf-15" value="UDisplayClusterGameEngine" style="text;whiteSpace=wrap;html=1;" parent="1" vertex="1">
          <mxGeometry x="300" y="560" width="180" height="30" as="geometry" />
        </mxCell>
        <mxCell id="noAZoOvtoCz1vI1rL1xf-17" value="Extends" style="endArrow=block;endSize=16;endFill=0;html=1;rounded=0;exitX=0.35;exitY=-0.133;exitDx=0;exitDy=0;exitPerimeter=0;entryX=0.573;entryY=1.04;entryDx=0;entryDy=0;entryPerimeter=0;" parent="1" source="noAZoOvtoCz1vI1rL1xf-15" target="noAZoOvtoCz1vI1rL1xf-5" edge="1">
          <mxGeometry width="160" relative="1" as="geometry">
            <mxPoint x="120" y="630" as="sourcePoint" />
            <mxPoint x="370" y="440" as="targetPoint" />
          </mxGeometry>
        </mxCell>
        <mxCell id="noAZoOvtoCz1vI1rL1xf-18" value="FEditorViewportClient " style="swimlane;fontStyle=1;align=center;verticalAlign=top;childLayout=stackLayout;horizontal=1;startSize=26;horizontalStack=0;resizeParent=1;resizeParentMax=0;resizeLast=0;collapsible=1;marginBottom=0;" parent="1" vertex="1">
          <mxGeometry x="150" y="920" width="210" height="86" as="geometry" />
        </mxCell>
        <mxCell id="noAZoOvtoCz1vI1rL1xf-19" value="+PreviewScene ：FPreviewScene&#xa;" style="text;strokeColor=none;fillColor=none;align=left;verticalAlign=top;spacingLeft=4;spacingRight=4;overflow=hidden;rotatable=0;points=[[0,0.5],[1,0.5]];portConstraint=eastwest;" parent="noAZoOvtoCz1vI1rL1xf-18" vertex="1">
          <mxGeometry y="26" width="210" height="26" as="geometry" />
        </mxCell>
        <mxCell id="noAZoOvtoCz1vI1rL1xf-20" value="" style="line;strokeWidth=1;fillColor=none;align=left;verticalAlign=middle;spacingTop=-1;spacingLeft=3;spacingRight=3;rotatable=0;labelPosition=right;points=[];portConstraint=eastwest;" parent="noAZoOvtoCz1vI1rL1xf-18" vertex="1">
          <mxGeometry y="52" width="210" height="8" as="geometry" />
        </mxCell>
        <mxCell id="noAZoOvtoCz1vI1rL1xf-21" value="+ method(type): type" style="text;strokeColor=none;fillColor=none;align=left;verticalAlign=top;spacingLeft=4;spacingRight=4;overflow=hidden;rotatable=0;points=[[0,0.5],[1,0.5]];portConstraint=eastwest;" parent="noAZoOvtoCz1vI1rL1xf-18" vertex="1">
          <mxGeometry y="60" width="210" height="26" as="geometry" />
        </mxCell>
        <mxCell id="noAZoOvtoCz1vI1rL1xf-22" value="FPreviewScene&#xa;" style="swimlane;fontStyle=1;align=center;verticalAlign=top;childLayout=stackLayout;horizontal=1;startSize=26;horizontalStack=0;resizeParent=1;resizeParentMax=0;resizeLast=0;collapsible=1;marginBottom=0;" parent="1" vertex="1">
          <mxGeometry x="460" y="920" width="160" height="86" as="geometry" />
        </mxCell>
        <mxCell id="noAZoOvtoCz1vI1rL1xf-23" value="+ field: type" style="text;strokeColor=none;fillColor=none;align=left;verticalAlign=top;spacingLeft=4;spacingRight=4;overflow=hidden;rotatable=0;points=[[0,0.5],[1,0.5]];portConstraint=eastwest;" parent="noAZoOvtoCz1vI1rL1xf-22" vertex="1">
          <mxGeometry y="26" width="160" height="26" as="geometry" />
        </mxCell>
        <mxCell id="noAZoOvtoCz1vI1rL1xf-24" value="" style="line;strokeWidth=1;fillColor=none;align=left;verticalAlign=middle;spacingTop=-1;spacingLeft=3;spacingRight=3;rotatable=0;labelPosition=right;points=[];portConstraint=eastwest;" parent="noAZoOvtoCz1vI1rL1xf-22" vertex="1">
          <mxGeometry y="52" width="160" height="8" as="geometry" />
        </mxCell>
        <mxCell id="noAZoOvtoCz1vI1rL1xf-25" value="+ method(type): type" style="text;strokeColor=none;fillColor=none;align=left;verticalAlign=top;spacingLeft=4;spacingRight=4;overflow=hidden;rotatable=0;points=[[0,0.5],[1,0.5]];portConstraint=eastwest;" parent="noAZoOvtoCz1vI1rL1xf-22" vertex="1">
          <mxGeometry y="60" width="160" height="26" as="geometry" />
        </mxCell>
        <mxCell id="noAZoOvtoCz1vI1rL1xf-26" value="FCommonViewportClient" style="swimlane;fontStyle=1;align=center;verticalAlign=top;childLayout=stackLayout;horizontal=1;startSize=26;horizontalStack=0;resizeParent=1;resizeParentMax=0;resizeLast=0;collapsible=1;marginBottom=0;" parent="1" vertex="1">
          <mxGeometry x="150" y="760" width="210" height="86" as="geometry" />
        </mxCell>
        <mxCell id="noAZoOvtoCz1vI1rL1xf-27" value="+ field: type" style="text;strokeColor=none;fillColor=none;align=left;verticalAlign=top;spacingLeft=4;spacingRight=4;overflow=hidden;rotatable=0;points=[[0,0.5],[1,0.5]];portConstraint=eastwest;" parent="noAZoOvtoCz1vI1rL1xf-26" vertex="1">
          <mxGeometry y="26" width="210" height="26" as="geometry" />
        </mxCell>
        <mxCell id="noAZoOvtoCz1vI1rL1xf-28" value="" style="line;strokeWidth=1;fillColor=none;align=left;verticalAlign=middle;spacingTop=-1;spacingLeft=3;spacingRight=3;rotatable=0;labelPosition=right;points=[];portConstraint=eastwest;" parent="noAZoOvtoCz1vI1rL1xf-26" vertex="1">
          <mxGeometry y="52" width="210" height="8" as="geometry" />
        </mxCell>
        <mxCell id="noAZoOvtoCz1vI1rL1xf-29" value="+ method(type): type" style="text;strokeColor=none;fillColor=none;align=left;verticalAlign=top;spacingLeft=4;spacingRight=4;overflow=hidden;rotatable=0;points=[[0,0.5],[1,0.5]];portConstraint=eastwest;" parent="noAZoOvtoCz1vI1rL1xf-26" vertex="1">
          <mxGeometry y="60" width="210" height="26" as="geometry" />
        </mxCell>
        <mxCell id="noAZoOvtoCz1vI1rL1xf-31" value="FViewportClient" style="swimlane;fontStyle=1;align=center;verticalAlign=top;childLayout=stackLayout;horizontal=1;startSize=26;horizontalStack=0;resizeParent=1;resizeParentMax=0;resizeLast=0;collapsible=1;marginBottom=0;" parent="1" vertex="1">
          <mxGeometry x="160" y="620" width="200" height="86" as="geometry" />
        </mxCell>
        <mxCell id="noAZoOvtoCz1vI1rL1xf-32" value="+ ViewportClient: FViewportClient" style="text;strokeColor=none;fillColor=none;align=left;verticalAlign=top;spacingLeft=4;spacingRight=4;overflow=hidden;rotatable=0;points=[[0,0.5],[1,0.5]];portConstraint=eastwest;" parent="noAZoOvtoCz1vI1rL1xf-31" vertex="1">
          <mxGeometry y="26" width="200" height="26" as="geometry" />
        </mxCell>
        <mxCell id="noAZoOvtoCz1vI1rL1xf-33" value="" style="line;strokeWidth=1;fillColor=none;align=left;verticalAlign=middle;spacingTop=-1;spacingLeft=3;spacingRight=3;rotatable=0;labelPosition=right;points=[];portConstraint=eastwest;" parent="noAZoOvtoCz1vI1rL1xf-31" vertex="1">
          <mxGeometry y="52" width="200" height="8" as="geometry" />
        </mxCell>
        <mxCell id="noAZoOvtoCz1vI1rL1xf-34" value="+GetClient:FViewportClient*" style="text;strokeColor=none;fillColor=none;align=left;verticalAlign=top;spacingLeft=4;spacingRight=4;overflow=hidden;rotatable=0;points=[[0,0.5],[1,0.5]];portConstraint=eastwest;" parent="noAZoOvtoCz1vI1rL1xf-31" vertex="1">
          <mxGeometry y="60" width="200" height="26" as="geometry" />
        </mxCell>
        <mxCell id="noAZoOvtoCz1vI1rL1xf-35" value="" style="endArrow=block;dashed=1;endFill=0;endSize=12;html=1;rounded=0;entryX=0.3;entryY=1.154;entryDx=0;entryDy=0;entryPerimeter=0;" parent="1" edge="1">
          <mxGeometry width="160" relative="1" as="geometry">
            <mxPoint x="220" y="750" as="sourcePoint" />
            <mxPoint x="220" y="706.0039999999999" as="targetPoint" />
          </mxGeometry>
        </mxCell>
        <mxCell id="noAZoOvtoCz1vI1rL1xf-36" value="Extends" style="endArrow=block;endSize=16;endFill=0;html=1;rounded=0;exitX=0.338;exitY=0;exitDx=0;exitDy=0;exitPerimeter=0;" parent="1" source="noAZoOvtoCz1vI1rL1xf-18" edge="1">
          <mxGeometry width="160" relative="1" as="geometry">
            <mxPoint x="350" y="780" as="sourcePoint" />
            <mxPoint x="221" y="850" as="targetPoint" />
          </mxGeometry>
        </mxCell>
        <mxCell id="noAZoOvtoCz1vI1rL1xf-37" value="" style="endArrow=diamondThin;endFill=0;endSize=24;html=1;rounded=0;exitX=-0.012;exitY=0.808;exitDx=0;exitDy=0;exitPerimeter=0;entryX=1.005;entryY=0.846;entryDx=0;entryDy=0;entryPerimeter=0;" parent="1" source="noAZoOvtoCz1vI1rL1xf-23" target="noAZoOvtoCz1vI1rL1xf-19" edge="1">
          <mxGeometry width="160" relative="1" as="geometry">
            <mxPoint x="350" y="780" as="sourcePoint" />
            <mxPoint x="370" y="970" as="targetPoint" />
          </mxGeometry>
        </mxCell>
      </root>
    </mxGraphModel>
  </diagram>
</mxfile>
